<svg xmlns="http://www.w3.org/2000/svg" xmlns:xlink="http://www.w3.org/1999/xlink" version="1.1" width="1000" height="1000" viewBox="0 0 1000 1000" xml:space="preserve">
<desc>Created with Fabric.js 3.5.0</desc>
<defs>
</defs>
<rect x="0" y="0" width="100%" height="100%" fill="#ffffff"/>
<g transform="matrix(5.1948 0 0 5.1948 499.9995 499.9999)" id="669465">
<g style="" vector-effect="non-scaling-stroke">
		<g transform="matrix(1 0 0 1 -65.5947 -0.5)" id="surface1" clip-path="url(#CLIPPATH_1)">
<clipPath id="CLIPPATH_1">
	<rect transform="matrix(1 0 0 1 65.0947 0.5)" id="clip1" x="-87" y="-28" rx="0" ry="0" width="174" height="56"/>
</clipPath>
<path style="stroke: none; stroke-width: 1; stroke-dasharray: none; stroke-linecap: butt; stroke-dashoffset: 0; stroke-linejoin: miter; stroke-miterlimit: 4; is-custom-font: none; font-file-url: none; fill: rgb(255,183,0); fill-rule: evenodd; opacity: 1;" transform=" translate(-21.9053, -27.5)" d="M -0.046875 -0.046875 C 8.109375 -0.046875 16.265625 -0.046875 24.421875 -0.046875 C 27.535156 0.0585938 30.585938 0.585938 33.578125 1.546875 C 37.347656 3.117188 40.082031 5.765625 41.777344 9.5 C 43.980469 14.863281 44.433594 20.378906 43.136719 26.046875 C 41.613281 31.972656 37.972656 35.925781 32.21875 37.910156 C 29.601562 38.554688 26.941406 38.886719 24.242188 38.910156 C 22.007812 38.953125 19.773438 38.96875 17.535156 38.953125 C 17.535156 44.316406 17.535156 49.683594 17.535156 55.046875 C 11.675781 55.046875 5.816406 55.046875 -0.046875 55.046875 C -0.046875 36.683594 -0.046875 18.316406 -0.046875 -0.046875 Z M 17.445312 14.410156 C 18.894531 14.394531 20.34375 14.410156 21.796875 14.453125 C 24.710938 14.773438 26.160156 16.410156 26.144531 19.363281 C 26.183594 22.140625 24.855469 23.808594 22.15625 24.363281 C 20.589844 24.488281 19.019531 24.535156 17.445312 24.5 C 17.445312 21.136719 17.445312 17.773438 17.445312 14.410156 Z M 17.445312 14.410156" stroke-linecap="round"/>
</g>
		<g transform="matrix(1 0 0 1 43.4082 1.3652)" id="surface1" clip-path="url(#CLIPPATH_2)">
<clipPath id="CLIPPATH_2">
	<rect transform="matrix(1 0 0 1 -43.9082 -1.3652)" id="clip2" x="-87" y="-28" rx="0" ry="0" width="174" height="56"/>
</clipPath>
<path style="stroke: none; stroke-width: 1; stroke-dasharray: none; stroke-linecap: butt; stroke-dashoffset: 0; stroke-linejoin: miter; stroke-miterlimit: 4; is-custom-font: none; font-file-url: none; fill: rgb(252,183,0); fill-rule: evenodd; opacity: 1;" transform=" translate(-130.9082, -29.3652)" d="M 123.839844 3.683594 C 129.277344 3.683594 134.714844 3.683594 140.152344 3.683594 C 140.152344 7.5 140.152344 11.316406 140.152344 15.136719 C 141.722656 15.136719 143.292969 15.136719 144.863281 15.136719 C 144.863281 19.773438 144.863281 24.410156 144.863281 29.046875 C 143.292969 29.046875 141.722656 29.046875 140.152344 29.046875 C 140.152344 37.710938 140.152344 46.378906 140.152344 55.046875 C 134.714844 55.046875 129.277344 55.046875 123.839844 55.046875 C 123.839844 46.410156 123.839844 37.773438 123.839844 29.136719 C 121.542969 29.136719 119.246094 29.136719 116.953125 29.136719 C 116.953125 24.46875 116.953125 19.804688 116.953125 15.136719 C 119.246094 15.136719 121.542969 15.136719 123.839844 15.136719 C 123.839844 11.316406 123.839844 7.5 123.839844 3.683594 Z M 123.839844 3.683594" stroke-linecap="round"/>
</g>
		<g transform="matrix(1 0 0 1 72.8145 1.3652)" id="surface1" clip-path="url(#CLIPPATH_3)">
<clipPath id="CLIPPATH_3">
	<rect transform="matrix(1 0 0 1 -73.3145 -1.3652)" id="clip3" x="-87" y="-28" rx="0" ry="0" width="174" height="56"/>
</clipPath>
<path style="stroke: none; stroke-width: 1; stroke-dasharray: none; stroke-linecap: butt; stroke-dashoffset: 0; stroke-linejoin: miter; stroke-miterlimit: 4; is-custom-font: none; font-file-url: none; fill: rgb(252,183,0); fill-rule: evenodd; opacity: 1;" transform=" translate(-160.3145, -29.3652)" d="M 173.953125 15.136719 C 173.953125 19.773438 173.953125 24.410156 173.953125 29.046875 C 171.6875 29.046875 169.421875 29.046875 167.15625 29.046875 C 167.15625 37.710938 167.15625 46.378906 167.15625 55.046875 C 161.71875 55.046875 156.28125 55.046875 150.84375 55.046875 C 150.84375 46.410156 150.84375 37.773438 150.84375 29.136719 C 149.457031 29.136719 148.066406 29.136719 146.675781 29.136719 C 146.675781 24.46875 146.675781 19.804688 146.675781 15.136719 C 148.066406 15.136719 149.457031 15.136719 150.84375 15.136719 C 150.84375 11.316406 150.84375 7.5 150.84375 3.683594 C 156.28125 3.683594 161.71875 3.683594 167.15625 3.683594 C 167.15625 7.5 167.15625 11.316406 167.15625 15.136719 C 169.421875 15.136719 171.6875 15.136719 173.953125 15.136719 Z M 173.953125 15.136719" stroke-linecap="round"/>
</g>
		<g transform="matrix(1 0 0 1 6.6873 7.0781)" id="surface1" clip-path="url(#CLIPPATH_4)">
<clipPath id="CLIPPATH_4">
	<rect transform="matrix(1 0 0 1 -7.1873 -7.0781)" id="clip4" x="-87" y="-28" rx="0" ry="0" width="174" height="56"/>
</clipPath>
<path style="stroke: none; stroke-width: 1; stroke-dasharray: none; stroke-linecap: butt; stroke-dashoffset: 0; stroke-linejoin: miter; stroke-miterlimit: 4; is-custom-font: none; font-file-url: none; fill: rgb(255,183,0); fill-rule: evenodd; opacity: 1;" transform=" translate(-94.1873, -35.0781)" d="M 89.945312 55.953125 C 88.949219 55.953125 87.953125 55.953125 86.953125 55.953125 C 82 55.214844 78.359375 52.609375 76.035156 48.136719 C 74.40625 44.84375 73.5 41.359375 73.316406 37.683594 C 73.0625 33.929688 73.394531 30.234375 74.3125 26.589844 C 75.230469 23.035156 77 19.988281 79.613281 17.453125 C 83.867188 14.042969 88.550781 13.316406 93.660156 15.273438 C 95.746094 16.152344 97.453125 17.5 98.78125 19.316406 C 98.828125 17.925781 98.84375 16.53125 98.828125 15.136719 C 104.265625 15.136719 109.703125 15.136719 115.140625 15.136719 C 115.140625 28.4375 115.140625 41.742188 115.140625 55.046875 C 109.703125 55.046875 104.265625 55.046875 98.828125 55.046875 C 98.84375 53.558594 98.828125 52.074219 98.78125 50.589844 C 97.320312 53.03125 95.222656 54.652344 92.484375 55.453125 C 91.628906 55.652344 90.785156 55.820312 89.945312 55.953125 Z M 93.570312 30.046875 C 96.285156 29.9375 98.113281 31.152344 99.054688 33.683594 C 99.597656 36.230469 98.765625 38.183594 96.5625 39.546875 C 93.90625 40.648438 91.71875 40.058594 89.992188 37.773438 C 88.847656 35.671875 89 33.671875 90.445312 31.773438 C 91.316406 30.875 92.359375 30.296875 93.570312 30.046875 Z M 93.570312 30.046875" stroke-linecap="round"/>
</g>
		<g transform="matrix(1 0 0 1 -28.4511 6.6758)" id="surface1" clip-path="url(#CLIPPATH_5)">
<clipPath id="CLIPPATH_5">
	<rect transform="matrix(1 0 0 1 27.9511 -6.6758)" id="clip5" x="-87" y="-28" rx="0" ry="0" width="174" height="56"/>
</clipPath>
<path style="stroke: none; stroke-width: 1; stroke-dasharray: none; stroke-linecap: butt; stroke-dashoffset: 0; stroke-linejoin: miter; stroke-miterlimit: 4; is-custom-font: none; font-file-url: none; fill: rgb(255,183,0); fill-rule: evenodd; opacity: 1;" transform=" translate(-59.0489, -34.6758)" d="M 69.644531 14.316406 C 70.800781 14.277344 71.949219 14.335938 73.089844 14.5 C 73.121094 19.683594 73.089844 24.863281 73 30.046875 C 70.546875 29.1875 68.097656 29.203125 65.65625 30.089844 C 63.78125 30.914062 62.585938 32.324219 62.078125 34.316406 C 61.710938 35.6875 61.5 37.082031 61.445312 38.5 C 61.398438 44.015625 61.382812 49.53125 61.398438 55.046875 C 55.929688 55.046875 50.464844 55.046875 44.996094 55.046875 C 44.996094 41.742188 44.996094 28.4375 44.996094 15.136719 C 50.34375 15.136719 55.6875 15.136719 61.035156 15.136719 C 61.019531 16.621094 61.035156 18.105469 61.082031 19.589844 C 63.003906 16.3125 65.859375 14.554688 69.644531 14.316406 Z M 69.644531 14.316406" stroke-linecap="round"/>
</g>
</g>
</g>
</svg>