<svg xmlns="http://www.w3.org/2000/svg" xmlns:xlink="http://www.w3.org/1999/xlink" version="1.1" width="1000" height="1000" viewBox="0 0 1000 1000" xml:space="preserve">
<desc>Created with Fabric.js 3.5.0</desc>
<defs>
</defs>
<rect x="0" y="0" width="100%" height="100%" fill="#ffffff"/>
<g transform="matrix(8.1183 0 0 8.1183 1240.5462 499.9991)" id="999673">
<g style="" vector-effect="non-scaling-stroke">
		<g transform="matrix(1 0 0 1 -92.74 0)" id="Layer_1-2">
<path style="stroke: none; stroke-width: 1; stroke-dasharray: none; stroke-linecap: butt; stroke-dashoffset: 0; stroke-linejoin: miter; stroke-miterlimit: 4; is-custom-font: none; font-file-url: none; fill: rgb(255,255,255); fill-rule: nonzero; opacity: 1;" transform=" translate(-37, -40.83)" d="M 37 81.66 C 20.64 71.92 0 57.78 0 32.8 V 6.43 C 7.55 3.57 19.21 0 37 0 C 55 0 67.35 3.89 74 6.43 V 32.8 C 74 58 52.57 72.5 37 81.66 Z" stroke-linecap="round"/>
</g>
		<g transform="matrix(1 0 0 1 -92.7601 -0.29)" id="Layer_1-2">
<path style="stroke: none; stroke-width: 1; stroke-dasharray: none; stroke-linecap: butt; stroke-dashoffset: 0; stroke-linejoin: miter; stroke-miterlimit: 4; is-custom-font: none; font-file-url: none; fill: rgb(30,64,124); fill-rule: nonzero; opacity: 1;" transform=" translate(-36.9798, -40.54)" d="M 48.14 47.5 c 0 -0.56 0.46 -1.43 0.46 -2.2 s -1.13 -1.22 -2 -1.34 c -1.85 -0.26 -2.47 -0.17 -2.47 -0.58 s 0.25 -0.58 0.59 -1.06 A 3.49 3.49 0 0 1 47 41.25 A 19.22 19.22 0 0 1 49.87 41 a 16.18 16.18 0 0 1 2.77 0.27 c 1.13 0.2 1.31 0.67 1.31 1.2 V 43 c 0 0.54 -0.44 0.82 -1.23 1 l -0.61 0.12 c -0.57 0.12 -1.28 0.23 -1.53 1 c -0.54 1.55 -1.48 2.77 -2.18 2.74 C 48.27 47.82 48.14 47.73 48.14 47.5 Z m 1.63 -25 c -0.07 0 -0.31 -0.13 -0.31 -0.37 s 0.2 -0.55 0.6 -1.09 c 0.93 -1.24 2.2 -2.77 2.67 -2.77 c 0.23 0 0.37 0.16 0.65 0.69 a 3.13 3.13 0 0 1 0.31 1.35 a 6.92 6.92 0 0 1 -1.45 4.12 A 12.16 12.16 0 0 0 49.77 22.45 Z M 22.58 25.53 c 0.42 0 0.74 -0.28 1.36 -1 c 1.41 -1.56 2.77 -1.77 2.77 -2.43 a 1.81 1.81 0 0 0 -0.39 -0.9 a 58 58 0 0 1 -3 -5.3 c -0.32 -0.62 -0.74 -1 -1.07 -1 c -0.51 0 -1.06 0.6 -1.38 1.12 A 4.85 4.85 0 0 0 20 18.32 a 16.23 16.23 0 0 0 0.75 4.52 C 21.21 24.27 21.94 25.53 22.58 25.53 Z m 16.9 5.41 a 2.82 2.82 0 0 0 -3 -2.38 a 3.66 3.66 0 0 0 -3.31 2.26 a 3.42 3.42 0 0 0 2.41 2.1 c 0.22 0.07 0.43 0.07 0.43 0.26 s -0.27 0.39 -0.85 0.39 a 4.17 4.17 0 0 1 -3.41 -1.39 a 13.24 13.24 0 0 1 -1.71 0.28 c -0.56 0 -0.81 -0.36 -0.81 -0.86 a 2.51 2.51 0 0 1 0.28 -1.07 l 0.3 -0.6 a 5.49 5.49 0 0 1 2.4 -2.76 l 1 -0.57 A 4.88 4.88 0 0 1 36 25.91 h 0.83 a 3.6 3.6 0 0 1 2.63 0.89 c 1.21 1 1.88 1.57 1.88 2.32 a 3.37 3.37 0 0 1 -0.72 2.37 a 3 3 0 0 1 -2 1.26 c -0.15 0 -0.2 -0.09 -0.2 -0.17 s 0.13 -0.17 0.26 -0.28 A 3.11 3.11 0 0 0 39.48 30.94 Z m 8.13 25.94 a 15.15 15.15 0 0 1 -3.71 0.23 c -4.2 0 -4.91 -1 -4.91 -1.85 c 0 -1.37 6 -2.33 8.39 -2.33 s 3.28 0.73 3.28 1.29 S 49.63 56.39 47.61 56.88 Z M 23.38 69.17 A 132 132 0 0 0 37 78.33 h 0 c 0 -4.11 -0.09 -6.54 2.69 -9.45 L 43 65.41 c 0.79 -0.82 1.43 -1.43 1.81 -1.43 s 0.38 0.14 0.38 0.5 a 8.42 8.42 0 0 0 1 3.33 a 4.17 4.17 0 0 0 3.07 2.38 c 11.93 -9 21.9 -20.73 21.9 -37.45 V 8.38 c -2.94 -1 -15 -5.63 -34.2 -5.63 S 5.75 7.38 2.8 8.38 V 32.74 A 38.63 38.63 0 0 0 7.91 52.1 c 0.31 -3.39 2.6 -5 2.6 -8.32 c 0 -2.32 -0.66 -3.78 -0.66 -5.73 c 0 -3.51 4.75 -10.73 7.21 -13.68 c 0.07 -0.08 0.23 -0.29 0.43 -0.29 a 0.5 0.5 0 0 1 0.41 0.29 c 0.25 0.38 0.36 0.58 0.63 0.58 s 0.37 -0.15 0.37 -0.39 a 20.66 20.66 0 0 1 -0.7 -5.62 c 0 -2.79 0.64 -3.38 2.38 -5.08 a 3.86 3.86 0 0 1 2.21 -1.25 c 1 0 1.54 0.61 2.18 1.26 c 1.07 1.09 2.57 3 2.81 3.33 a 0.34 0.34 0 0 0 0.28 0.16 c 0.49 0 0.91 -0.15 3.06 -0.15 A 51.38 51.38 0 0 1 44 18.82 a 21.93 21.93 0 0 0 2.3 0.86 c 0.2 0 0.22 -0.13 0.22 -0.23 s -0.42 -0.52 -0.42 -0.79 a 0.46 0.46 0 0 1 0.29 -0.38 c 2.26 -1.22 4.2 -2.14 6 -2.14 c 1 0 1.54 0.89 2 1.77 a 6 6 0 0 1 0.7 2.56 a 7.89 7.89 0 0 1 -1.64 4.88 c 0.35 0.36 0.84 0.9 1.14 1.26 A 4 4 0 0 1 55.67 29 a 8.06 8.06 0 0 1 -0.29 1.43 c 0 0.21 -0.23 0.63 -0.59 0.62 s -0.42 -0.36 -0.43 -0.68 v -0.24 a 3.67 3.67 0 0 0 -3.09 -3.58 H 51 a 3.11 3.11 0 0 0 -2.42 1 a 2.32 2.32 0 0 0 -0.75 1.7 a 4.78 4.78 0 0 0 0.67 1.69 c 0.23 0.45 0.81 1.53 1.12 2.08 a 1.14 1.14 0 0 0 1 0.65 c 1 0 1.83 -0.13 1.83 -0.42 c 0 -0.08 -0.05 -0.15 -0.18 -0.15 H 52 c -1.28 0 -2 -1.62 -2.59 -3.09 a 2.7 2.7 0 0 1 2 -1 a 2 2 0 0 1 2.1 2 a 3 3 0 0 1 -0.27 1.22 a 0.53 0.53 0 0 0 -0.07 0.23 c 0 0.17 0.21 0.21 0.56 0.29 l 0.5 0.12 a 1.48 1.48 0 0 1 0.94 0.88 l 0.42 1.15 a 8 8 0 0 1 0.55 2.64 a 7.77 7.77 0 0 1 -0.38 2.58 a 14.61 14.61 0 0 0 -0.63 2.79 a 4.57 4.57 0 0 1 0.21 0.46 a 5.59 5.59 0 0 1 0.5 2.21 v 0.75 a 5.62 5.62 0 0 1 -1.21 3.42 c -0.48 0.66 -1.18 1.59 -1.58 2.1 a 1.35 1.35 0 0 1 -1 0.54 a 2.58 2.58 0 0 1 -0.63 -0.12 l -1 -0.25 A 2 2 0 0 1 49 50.45 l -0.21 -0.53 c -0.21 -0.52 -0.32 -0.86 -0.65 -0.86 s -0.47 0.16 -0.71 0.52 a 3.9 3.9 0 0 1 -2.81 2.12 c -0.53 0.13 -1.59 0.35 -2.18 0.48 A 20.2 20.2 0 0 1 39 52.8 l -0.6 0 a 4.65 4.65 0 0 1 -3.63 -2.09 c -2.11 -2.51 -1.89 -2.87 -2 -6.27 c 0 -0.38 -0.14 -0.85 -0.53 -0.85 s -0.51 0.72 -0.64 1.74 c -0.15 1.2 -0.43 2.45 -1 2.45 a 4 4 0 0 1 -1.32 -0.27 l -3.68 -1.23 c -1.36 -0.45 -2.67 -0.81 -3.2 -2 l -0.94 -2.18 c -0.16 -0.39 -0.28 -0.59 -0.53 -0.59 s -0.45 0.43 -0.49 0.77 s -0.14 1.28 -0.19 1.83 a 7.69 7.69 0 0 1 -1.68 4.7 c -0.46 0.6 -0.9 1.22 -1.4 1.89 a 7.94 7.94 0 0 0 -1.65 5.51 c 0 0.18 0 1.18 0 1.65 C 15.6 61.82 16.62 63.78 23.38 69.17 Z" stroke-linecap="round"/>
</g>
		<g transform="matrix(1 0 0 1 -94.5222 12.385)" id="Layer_1-2">
<path style="stroke: none; stroke-width: 1; stroke-dasharray: none; stroke-linecap: butt; stroke-dashoffset: 0; stroke-linejoin: miter; stroke-miterlimit: 4; is-custom-font: none; font-file-url: none; fill: rgb(150,190,230); fill-rule: nonzero; opacity: 1;" transform=" translate(-35.2178, -53.215)" d="M 55.17 33.7 h 0 l 0.42 1.15 a 8 8 0 0 1 0.55 2.64 a 7.77 7.77 0 0 1 -0.38 2.58 a 14.61 14.61 0 0 0 -0.63 2.79 c -0.11 -0.23 -2.17 -3.78 -2.32 -4.07 a 1.81 1.81 0 0 1 -0.29 -0.9 c 0 -0.36 0.15 -0.58 0.59 -0.86 c 0.26 -0.16 0.61 -0.36 0.84 -0.48 a 2 2 0 0 0 1.31 -1.93 A 5.85 5.85 0 0 0 55.17 33.7 Z m -9 5.68 a 2.56 2.56 0 0 1 0.2 0.83 a 1.21 1.21 0 0 1 -0.42 1 c -0.18 0.15 -0.38 0.32 -0.55 0.49 a 1.89 1.89 0 0 0 -0.73 0.6 c -0.34 0.48 -0.59 0.78 -0.59 1.06 a 0.24 0.24 0 0 0 0.09 0.2 a 1.45 1.45 0 0 1 -0.57 -1.18 c 0 -0.38 0.12 -0.57 0.12 -0.92 a 2.76 2.76 0 0 0 -0.13 -0.76 c -0.57 -1.91 -1.53 -4.18 -2.13 -5.72 s -1.07 -2.44 -1.75 -2.44 c -0.38 0 -0.72 0.19 -1.12 0.19 a 3 3 0 0 0 2 -1.26 a 3.37 3.37 0 0 0 0.72 -2.37 a 1.55 1.55 0 0 0 -0.43 -1 a 11.38 11.38 0 0 1 2 3.24 C 44.16 34.08 45.27 37.06 46.21 39.38 Z M 15.51 57.81 c 0 -0.47 0 -1.47 0 -1.65 a 7.94 7.94 0 0 1 1.65 -5.51 c 0.5 -0.67 0.94 -1.29 1.4 -1.89 a 7.69 7.69 0 0 0 1.68 -4.7 c 0.05 -0.55 0.14 -1.44 0.19 -1.83 s 0.12 -0.77 0.49 -0.77 s 0.37 0.2 0.53 0.59 l 0.94 2.18 c 0.53 1.21 1.84 1.57 3.2 2 l 3.68 1.23 a 4 4 0 0 0 1.32 0.27 c 0.59 0 0.87 -1.25 1 -2.45 c 0.13 -1 0.28 -1.74 0.64 -1.74 s 0.52 0.47 0.53 0.85 c 0.13 3.4 -0.09 3.76 2 6.27 a 4.65 4.65 0 0 0 3.63 2.09 a 1.71 1.71 0 0 1 -1 -1.78 V 49.77 a 4.72 4.72 0 0 1 0.37 -1.94 c 0.15 -0.33 0.31 -0.93 0.47 -1.29 a 2 2 0 0 0 0.14 -1.22 a 7.09 7.09 0 0 0 -0.52 -2 c -0.19 -0.57 -0.44 -1.4 -0.69 -2.08 c -0.76 -2.13 -1.07 -2.63 -3.62 -3 l -5.14 -0.72 c -2.86 -0.41 -5.1 -0.54 -6.26 -2.46 C 20.74 32.76 20.89 30 19.55 30 c -0.64 0 -1 0.71 -1 1.75 s 0.42 2.85 0.42 5.92 c 0 2.65 -0.25 3.38 -1.8 5.34 c -0.4 0.5 -0.94 1.25 -1.28 1.68 c -1.15 1.44 -1.66 2.26 -1.59 3.94 A 56.83 56.83 0 0 0 15.51 57.81 Z M 44.67 68 c 0.09 -1.07 0.56 -2.84 0.56 -3.56 h 0 c 0 -0.36 -0.12 -0.5 -0.38 -0.5 s -1 0.61 -1.81 1.43 L 39.7 68.88 c -2.78 2.91 -2.65 5.34 -2.69 9.45 h 0 c 3.09 -1.86 5.92 -3.66 8 -5.09 A 16.28 16.28 0 0 1 44.67 68 Z" stroke-linecap="round"/>
</g>
		<g transform="matrix(1 0 0 1 45.11 -11.2656)" id="Layer_1-2">
<path style="stroke: none; stroke-width: 1; stroke-dasharray: none; stroke-linecap: butt; stroke-dashoffset: 0; stroke-linejoin: miter; stroke-miterlimit: 4; is-custom-font: none; font-file-url: none; fill: rgb(255,255,255); fill-rule: nonzero; opacity: 1;" transform=" translate(-174.85, -29.5645)" d="M 246.88 33.53 h 12.6 c -0.06 -6.48 -3.18 -10.2 -8.58 -10.2 S 242 27 242 32.7 c 0 2.16 0.71 9.2 9.75 9.2 a 16.52 16.52 0 0 0 6.5 -1.08 V 37.46 a 13.56 13.56 0 0 1 -5.42 1.06 C 249.3 38.52 247 36.49 246.88 33.53 Z m -17.83 -6.61 h 2.45 V 37 c 0 3 2.18 4.92 5.7 4.92 a 15.75 15.75 0 0 0 3.8 -0.53 V 38.28 a 11.06 11.06 0 0 1 -2 0.24 c -2.18 0 -3 -0.94 -3 -3.36 V 26.92 h 4.84 V 23.75 H 236 V 19.87 H 231.5 v 3.88 h -2.45 Z m -13.54 0.16 a 10 10 0 0 1 3 -0.57 c 2.65 0 3.83 1.12 3.83 3.63 v 1.05 h -2.35 c -5.95 0 -9.1 1.95 -9.1 5.63 c 0 3.09 2.31 5.08 5.88 5.08 A 6.66 6.66 0 0 0 222.59 39 h 0.13 l 0.14 2.47 h 5.51 V 38.31 H 226.5 v -8 c 0 -4.6 -2.72 -6.94 -8.1 -6.94 a 15 15 0 0 0 -6.69 1.8 v 4.32 h 3.8 Z m -18.19 -0.16 h 2.46 V 37 c 0 3 2.18 4.92 5.69 4.92 a 15.86 15.86 0 0 0 3.81 -0.53 V 38.28 a 11.66 11.66 0 0 1 -2 0.24 c -2.18 0 -3 -0.94 -3 -3.36 V 26.92 h 4.84 V 23.75 h -4.84 V 19.87 h -4.49 v 3.88 h -2.46 Z M 182.26 37.59 V 34.51 H 178 V 40.6 a 23.84 23.84 0 0 0 8.07 1.3 c 6 0 9.32 -2.67 9.32 -7.52 s -3.62 -6.28 -7 -7.18 L 186 26.57 c -2 -0.49 -3 -1.55 -3 -3.13 s 1.27 -3.06 4.12 -3.06 a 8.94 8.94 0 0 1 3 0.62 v 2.91 h 4.22 V 18.43 a 21.64 21.64 0 0 0 -7.38 -1.22 c -5.73 0 -8.89 2.38 -8.89 6.71 c 0 3.87 1.8 5.93 6.21 7.12 l 2.07 0.57 c 2.89 0.78 4.07 1.83 4.07 3.62 c 0 2 -1.41 3.08 -4 3.08 A 18.46 18.46 0 0 1 182.26 37.59 Z m -66.37 -4.06 h 12.6 c -0.05 -6.48 -3.17 -10.2 -8.57 -10.2 S 111 27 111 32.7 c 0 2.16 0.7 9.2 9.75 9.2 a 16.56 16.56 0 0 0 6.5 -1.08 V 37.46 a 13.57 13.57 0 0 1 -5.43 1.06 C 118.32 38.52 116 36.49 115.89 33.53 Z m 27.27 8 h 8.53 V 38.31 h -2.07 V 30.37 c 0 -4.28 -2.68 -7 -6.83 -7 a 6.49 6.49 0 0 0 -5.68 2.79 H 137 l -0.14 -2.37 h -6.3 v 3.17 h 2.36 V 38.31 h -2 v 3.18 h 8.54 V 38.31 H 137.4 V 31.2 c 0 -2.59 1.41 -4.07 3.85 -4.07 s 3.88 1.48 3.88 4.07 v 7.11 h -2 Z m -52.94 0 h 9.47 V 38.31 H 97.31 V 32.15 h 3.85 c 5.46 0 8.72 -2.72 8.72 -7.26 s -3.26 -7.26 -8.72 -7.26 H 90.22 V 20.8 h 2.39 V 38.31 H 90.22 Z m 128 -2.76 c -2.09 0 -2.84 -1.27 -2.84 -2.36 c 0 -1.8 1.61 -2.56 5.37 -2.56 h 1.53 V 34 C 222.23 37.24 220.13 38.73 218.17 38.73 Z m 28.66 -8.17 c 0.17 -2.58 1.66 -4.26 3.9 -4.26 c 2.41 0 3.85 1.53 3.85 4.09 v 0.17 Z m -131 0 c 0.21 -2.68 1.65 -4.26 3.9 -4.26 c 2.41 0 3.84 1.53 3.84 4.09 v 0.17 Z M 100.64 29 H 97.31 V 20.8 h 3.26 c 2.73 0 4.42 1.57 4.42 4.09 S 103.33 29 100.64 29 Z m 65.67 12.52 h 8.54 V 38.31 h -2.08 V 30.37 c 0 -4.28 -2.68 -7 -6.82 -7 a 6.53 6.53 0 0 0 -5.69 2.79 h -0.11 L 160 23.75 h -6.3 v 3.17 h 2.35 V 38.31 h -2 v 3.18 h 8.53 V 38.31 h -2.07 V 31.2 c 0 -2.59 1.4 -4.07 3.85 -4.07 s 3.87 1.48 3.87 4.07 v 7.11 h -2 Z" stroke-linecap="round"/>
</g>
</g>
</g>
</svg>